<svg xmlns="http://www.w3.org/2000/svg" width="288" height="109.759" viewBox="0 0 288 109.759">
  <g id="Grupo_48" data-name="Grupo 48" transform="translate(0 285.7)">
    <path id="Caminho_8860" data-name="Caminho 8860" d="M313.743-216.951H300.932v56.461h35.427v-11.387H313.743Z" transform="translate(-185.321 -42.337)" fill="#fff" fill-rule="evenodd"/>
    <path id="Caminho_8861" data-name="Caminho 8861" d="M407.144-135.138h12.81v-40.646h-12.81Z" transform="translate(-250.728 -67.689)" fill="#fff" fill-rule="evenodd"/>
    <path id="Caminho_8862" data-name="Caminho 8862" d="M407.144-205.722h12.81v-11.229h-12.81Z" transform="translate(-250.728 -42.337)" fill="#fff" fill-rule="evenodd"/>
    <path id="Caminho_8863" data-name="Caminho 8863" d="M471.15-178.361a7.528,7.528,0,0,1-7.433-7.433,7.2,7.2,0,0,1,7.433-7.275,6.9,6.9,0,0,1,7.275,6.959C478.425-182,475.262-178.361,471.15-178.361Zm49.819-22.774H510.53v-15.815H497.72v15.815H470.043c-14.709,0-18.188,9.805-18.188,14.867,0,12.494,16.29,13.918,16.448,13.918h.633l-9.647,11.545H471.15c8.066.474,10.28,2.847,10.28,5.536s-3.637,5.061-9.173,5.061H471.15c-6.168-.158-9.489-1.74-9.489-4.744v-.317h-11.7v.949c0,5.219,4.429,11.7,21.193,11.7h.475c13.127,0,21.509-4.112,21.509-13.6a11.19,11.19,0,0,0-3.321-7.908c-1.265-1.266-4.587-4.113-15.341-4.429a2.012,2.012,0,0,1-.949-.158s1.74-.949,2.531-1.423c3.479-2.056,7.433-3.638,10.6-6.8a12.119,12.119,0,0,0,3.8-8.857,12.982,12.982,0,0,0-2.056-6.8h9.331v32.105h12.81V-192.6h5.694c3.954,0,6.642,2.372,6.642,8.382v23.723h12.81V-186.9C535.677-197.973,528.4-201.136,520.969-201.136Z" transform="translate(-277.094 -42.337)" fill="#fff" fill-rule="evenodd"/>
    <path id="Caminho_8864" data-name="Caminho 8864" d="M110.884-272.257l.632-.949,6.326-10.6-3.322-1.9-8.7,10.28-1.107,1.265-.949,1.265-3.8,4.428L70.4-233.035h48.079l7.275-8.7H92.379l14.867-24.514a37.955,37.955,0,0,1,13.6,9.806c.316.158.474.475.791.791.949,1.107,1.74,2.214,2.531,3.321s1.423,2.372,2.214,3.479a3.171,3.171,0,0,0,.633,1.265c.474,1.266,1.107,2.689,1.582,3.954.316.949.632,2.056.949,3.005a22.378,22.378,0,0,1,.632,3.163q.237,1.66.474,3.321c0,1.107.158,2.214.158,3.321a38.737,38.737,0,0,1-.317,4.27,2.348,2.348,0,0,1-.158,1.107,40.518,40.518,0,0,1-.791,4.27c-.317.949-.633,2.057-.949,3.005a41.3,41.3,0,0,1-1.582,3.954c-.633,1.107-1.107,2.056-1.74,3.163a30.683,30.683,0,0,1-3.321,4.587c-.633.949-1.581,1.74-2.372,2.688a45,45,0,0,1-4.112,3.637,37.7,37.7,0,0,1-4.745,2.847c-.474.316-1.107.632-1.581.949-.632.316-1.265.475-1.9.791-1.107.474-2.056.791-3.005,1.107a39.774,39.774,0,0,1-4.112,1.107c-1.107.158-2.214.317-3.163.474-1.581.158-3,.316-4.428.316h-.791l-4.112,4.9-.949,1.107c1.9.158,3.8.316,5.852.316,27.044,0,49.028-19.927,49.028-44.6C141.566-249.641,128.914-265.614,110.884-272.257Z" transform="translate(-43.351)" fill="#fff" fill-rule="evenodd"/>
    <path id="Caminho_8865" data-name="Caminho 8865" d="M71.328-212.286H23.249l-7.275,8.856H49.345L34.478-179.073a36.319,36.319,0,0,1-9.015-5.219c-.949-.791-1.74-1.581-2.531-2.372a24.241,24.241,0,0,1-2.056-1.9,51.431,51.431,0,0,1-4.9-6.642l-1.9-3.8a58.1,58.1,0,0,1-2.372-7.433c-.158-.632-.158-1.265-.316-1.9s-.158-1.265-.317-2.056a33.026,33.026,0,0,1-.158-3.954,47.859,47.859,0,0,1,.317-4.9c0-.474.158-.791.158-1.265.158-.791.316-1.582.474-2.214a38.707,38.707,0,0,1,1.265-4.586,32.652,32.652,0,0,1,2.372-5.377c.633-.949,1.265-2.056,1.9-3.163a51.657,51.657,0,0,1,4.745-5.535,38,38,0,0,1,27.045-11.229h.632l5.061-6.168c-1.9-.158-3.8-.158-5.693-.158-27.2,0-49.187,19.928-49.187,44.6,0,18.662,12.811,34.794,30.841,41.278l-.633,1.107-6.484,10.438,3.321,2.056,8.7-10.438,1.107-1.266.949-1.107,3.8-4.586Z" transform="translate(0 -16.478)" fill="#fff" fill-rule="evenodd"/>
    <path id="Caminho_8866" data-name="Caminho 8866" d="M698.267-205.436v-10.28h-12.81v10.28h-7.433v8.54h7.433v37.641h12.81V-196.9h7.276v-8.54Z" transform="translate(-417.542 -43.098)" fill="#fff" fill-rule="evenodd"/>
  </g>
</svg>
