<svg xmlns="http://www.w3.org/2000/svg" width="368" height="140.248" viewBox="0 0 368 140.248">
  <g id="Grupo_6464" data-name="Grupo 6464" transform="translate(0 285.7)">
    <path id="Caminho_8860" data-name="Caminho 8860" d="M317.3-216.951H300.932v72.145H346.2v-14.55H317.3Z" transform="translate(-153.207 -35.001)" fill="#fff" fill-rule="evenodd"/>
    <path id="Caminho_8861" data-name="Caminho 8861" d="M407.144-123.848h16.369v-51.936H407.144Z" transform="translate(-207.28 -55.959)" fill="#fff" fill-rule="evenodd"/>
    <path id="Caminho_8862" data-name="Caminho 8862" d="M407.144-202.6h16.369v-14.348H407.144Z" transform="translate(-207.28 -35.001)" fill="#fff" fill-rule="evenodd"/>
    <path id="Caminho_8863" data-name="Caminho 8863" d="M477.037-167.642a9.619,9.619,0,0,1-9.5-9.5,9.2,9.2,0,0,1,9.5-9.3c5.659,0,9.3,4.042,9.3,8.892C486.333-172.29,482.291-167.642,477.037-167.642Zm63.658-29.1H527.356v-20.209H510.988v20.209H475.622c-18.794,0-23.24,12.529-23.24,19,0,15.965,20.814,17.784,21.017,17.784h.809L461.88-145.211h15.156c10.307.606,13.136,3.638,13.136,7.073s-4.648,6.467-11.721,6.467h-1.415c-7.881-.2-12.125-2.223-12.125-6.062v-.4H449.957v1.212c0,6.669,5.659,14.955,27.08,14.955h.607c16.773,0,27.484-5.255,27.484-17.38a14.3,14.3,0,0,0-4.244-10.1c-1.617-1.617-5.861-5.255-19.6-5.659a2.571,2.571,0,0,1-1.213-.2s2.223-1.213,3.234-1.819c4.446-2.627,9.5-4.648,13.54-8.69a15.485,15.485,0,0,0,4.85-11.317c0-3.031-.808-5.456-2.627-8.69h11.923v41.023h16.368V-185.83h7.276c5.052,0,8.487,3.031,8.487,10.71v30.313h16.369v-33.748C559.488-192.7,550.192-196.742,540.694-196.742Z" transform="translate(-229.076 -35.001)" fill="#fff" fill-rule="evenodd"/>
    <path id="Caminho_8864" data-name="Caminho 8864" d="M122.131-268.523l.808-1.213,8.083-13.539-4.244-2.425-11.114,13.135-1.415,1.617-1.213,1.617-4.85,5.659L70.4-218.406H131.83l9.3-11.115H98.486l19-31.323a48.5,48.5,0,0,1,17.379,12.53c.4.2.606.606,1.011,1.01,1.212,1.415,2.223,2.829,3.234,4.244s1.819,3.031,2.829,4.446a4.051,4.051,0,0,0,.808,1.617c.606,1.617,1.415,3.436,2.021,5.052.4,1.213.808,2.627,1.213,3.84a28.59,28.59,0,0,1,.808,4.042q.3,2.121.606,4.244c0,1.414.2,2.829.2,4.244a49.5,49.5,0,0,1-.4,5.456,3,3,0,0,1-.2,1.415,51.762,51.762,0,0,1-1.01,5.456c-.4,1.213-.809,2.628-1.213,3.84a52.757,52.757,0,0,1-2.021,5.052c-.808,1.414-1.415,2.627-2.223,4.042a39.208,39.208,0,0,1-4.244,5.861c-.809,1.212-2.021,2.223-3.031,3.435a57.505,57.505,0,0,1-5.254,4.648,48.157,48.157,0,0,1-6.063,3.638c-.606.4-1.414.808-2.021,1.212-.808.4-1.617.607-2.425,1.011-1.415.606-2.627,1.01-3.84,1.415a50.83,50.83,0,0,1-5.255,1.414c-1.414.2-2.829.4-4.042.606-2.021.2-3.839.4-5.658.4H97.678l-5.254,6.265-1.213,1.415c2.426.2,4.851.4,7.478.4,34.556,0,62.647-25.463,62.647-56.988C161.335-239.624,145.168-260.035,122.131-268.523Z" transform="translate(-35.839)" fill="#fff" fill-rule="evenodd"/>
    <path id="Caminho_8865" data-name="Caminho 8865" d="M91.141-199.326H29.707l-9.3,11.317h42.64l-19,31.122a46.41,46.41,0,0,1-11.519-6.669c-1.213-1.01-2.223-2.021-3.234-3.031a30.974,30.974,0,0,1-2.627-2.425,65.722,65.722,0,0,1-6.265-8.488l-2.425-4.85a74.239,74.239,0,0,1-3.031-9.5c-.2-.808-.2-1.616-.4-2.425s-.2-1.617-.4-2.627a42.2,42.2,0,0,1-.2-5.052,61.154,61.154,0,0,1,.4-6.265c0-.606.2-1.011.2-1.617.2-1.011.4-2.021.606-2.829a49.459,49.459,0,0,1,1.617-5.86A41.724,41.724,0,0,1,19.8-225.4c.809-1.212,1.617-2.627,2.425-4.042a66.007,66.007,0,0,1,6.063-7.073,48.556,48.556,0,0,1,34.557-14.348h.808l6.467-7.881c-2.425-.2-4.85-.2-7.275-.2C28.09-258.942,0-233.479,0-201.953c0,23.846,16.369,44.459,39.407,52.744l-.809,1.414-8.285,13.338,4.244,2.627,11.115-13.338,1.415-1.617L48.3-148.2l4.85-5.86Z" transform="translate(0 -13.623)" fill="#fff" fill-rule="evenodd"/>
    <path id="Caminho_8866" data-name="Caminho 8866" d="M703.891-202.58v-13.136H687.522v13.136h-9.5v10.913h9.5v48.1h16.369v-48.1h9.3V-202.58Z" transform="translate(-345.187 -35.629)" fill="#fff" fill-rule="evenodd"/>
  </g>
</svg>
